<?xml version="1.0" encoding="UTF-8"?>
<svg xmlns="http://www.w3.org/2000/svg" version="1.1" viewBox="0 0 150 380">
  <!-- Generator: Adobe Illustrator 28.6.0, SVG Export Plug-In . SVG Version: 1.2.0 Build 709)  -->
  <g>
    <g id="Layer_1">
      <rect fill="#eb68a6" x="-.3" y="0" width="150.5" height="115.2"/>
      <rect fill="#bbb567" x="-.3" y="190" width="150.5" height="125.6"/>
      <rect fill="#9dd8de" x="-.3" y="316" width="150.5" height="65.2"/>
      <rect fill="#c9c8e4" x="-.3" y="115.3" width="150.5" height="74.8"/>
      <g>
        <path fill="#d8cf75" opacity="0.5" d="M76.1,261.7c6.5,0,11.8-5.3,11.8-11.8s-5.3-11.8-11.8-11.8-11.8,5.3-11.8,11.8,5.3,11.8,11.8,11.8ZM76.1,240c5.4,0,9.8,4.4,9.8,9.8s-4.4,9.8-9.8,9.8-9.8-4.4-9.8-9.8,4.4-9.8,9.8-9.8Z"/>
        <path fill="#d8cf75" opacity="0.5" d="M53.3,249.9c0,12.6,10.3,22.9,22.9,22.9s22.9-10.3,22.9-22.9-10.3-22.9-22.9-22.9-22.9,10.3-22.9,22.9ZM76.1,229c11.5,0,20.9,9.4,20.9,20.9s-9.4,20.9-20.9,20.9-20.9-9.4-20.9-20.9,9.4-20.9,20.9-20.9Z"/>
        <path fill="#d8cf75" opacity="0.5" d="M40.3,249.9c0,19.7,16.1,35.8,35.8,35.8s35.8-16.1,35.8-35.8-16.1-35.8-35.8-35.8-35.8,16.1-35.8,35.8ZM109.9,249.9c0,18.6-15.2,33.8-33.8,33.8s-33.8-15.2-33.8-33.8,15.2-33.8,33.8-33.8,33.8,15.2,33.8,33.8Z"/>
        <path fill="#d8cf75" opacity="0.5" d="M27.1,249.9c0,27,22,49,49,49s49-22,49-49-22-49-49-49-49,22-49,49ZM123.2,249.9c0,25.9-21.1,47-47,47s-47-21.1-47-47,21.1-47,47-47,47,21.1,47,47Z"/>
        <path fill="#d8cf75" opacity="0.5" d="M13.5,248.8c0,34.1,27.7,61.8,61.8,61.8s61.8-27.7,61.8-61.8-17.6-50.2-41.9-58.5h-7.5c27.1,5.7,47.4,29.8,47.4,58.5s-26.8,59.8-59.8,59.8-59.8-26.8-59.8-59.8,20.4-52.8,47.4-58.5h-7.5c-24.4,8.3-41.9,31.4-41.9,58.5Z"/>
        <path fill="#d8cf75" opacity="0.5" d="M3.5,249.9c0-24.8,12.6-46.7,31.7-59.6h-3.5C13.4,203.7,1.5,225.4,1.5,249.9s16.6,53.8,40.8,66h4.7c-25.5-11-43.5-36.5-43.5-66Z"/>
        <path fill="#d8cf75" opacity="0.5" d="M149.2,249.9c0-24.4-11.9-46.1-30.3-59.6h-3.5c19.1,12.9,31.7,34.8,31.7,59.6s-17.9,55-43.5,66h4.7c24.1-12.2,40.8-37.2,40.8-66Z"/>
      </g>
      <g fill="#1a1a1a">
        <path fill="none" d="M49.7,189.7h-2.3c.3.4.6.7.9,1.1.5-.3.9-.7,1.4-1.1Z"/>
        <path fill="#1a1a1a" d="M150.3,123c0-.4,0-.9,0-1.3,0,0,0,0,0,0v1.4s0,0,0,0Z"/>
        <path d="M44.6,186.2c3.5-1.5,4.9-3.5,4.7-6.7-.2-2.7-2-5-4.3-5.5-2.5-.5-5.1.8-6,3.5-.4,1.4-.6,3.2-.1,4.6.4,1.5,1.7,2.6,2.5,3.7-1.4,1-3,2.2-4.2,3-1.5-1.8-2.9-3.5-4.1-5.1,3.3-1.2,4.9-3,4.9-6,0-2.7-1.1-4.8-3.4-5.6-1.3-.4-2.9-.4-4.1,0-1.2.5-2.2,1.9-3.2,2.8,0-.4-.2-.9-.3-1.3-.8-2.8-2.5-4.4-5.2-4.4-2.5,0-4.3,1.5-5,4.2-.8,2.9.2,5.1,2.3,6.8.4.3.6.8.9,1.1,0,0,0,0,0,0,0,0,0,0,.1,0,2.8-.3,5.4-.8,6.5-3.6,1.2,1.9,2.3,3.9,3.5,5.7-1.3.9-2.9,2.1-4.8,3.5-.6-3-2.4-4.9-5.3-5.6,0,0-.1,0-.2,0,0,0,0,0,0,0-2.1,1.1-4.2,2.1-6.2,3.2-.5-2.2-1.9-4.2-4.7-4.7-2.5-.4-4.5.6-5.7,3-1.3,2.5-.9,4.8.3,6.8h44c-1-1.2-1.9-2.4-2.8-3.5Z"/>
        <path d="M56.2,188.1c3.6-1.8,4.8-3.7,4.5-7-.3-2.6-2.2-5.2-4.4-5.4-2.5-.2-4.8.5-5.9,3.3-.5,1.5-.7,3.4-.3,4.9.4,1.4,1.6,2.6,2.4,3.7-.9.7-1.9,1.4-2.8,2.1h7.8c-.4-.5-.9-1.1-1.3-1.6Z"/>
        <path d="M114.6,186.8c3.4-1.3,4.8-3.3,4.7-6.5-.1-2.7-1.8-5.1-4.2-5.6-2.6-.6-4.8.3-6,2.9-.6,1.4-.8,3.4-.4,4.9.4,1.5,1.7,2.7,2.6,4.1-.8.4-1.7.8-2.4,1.3-.7.5-1.3,1.3-1.8,1.7-1.4-1.8-2.9-3.6-4.2-5.3,3.2-1,4.8-2.8,4.9-5.8,0-2.8-1.1-4.9-3.4-5.9-3.2-1.4-5.4.4-7.3,3.4-.8-3.2-2.3-5.3-5.3-5.5-2.3-.2-4,1.1-5.1,3.3-1.5,3.2-.2,5.7,1.8,7.8-1.7,1.4-3.3,2.7-4.9,4-.8-3-2.4-4.9-5.3-5.1-2.5-.2-4.4,1.1-5.5,3.6-.9,2.2-.7,4,.2,5.7h45.5c-1.4-1.8-2.8-1.3-4-2.9ZM95.4,187.4c-.9-1.5-1.9-3.1-2.9-4.6,1.3-1.2,2.8-2.4,4.1-3.6.9,1.5,2.1,3.2,3.2,5-1.3.9-2.9,2.1-4.5,3.2Z"/>
        <path d="M126.2,189.2c3.6-1.7,4.8-3.6,4.5-6.9-.3-2.9-1.8-4.8-4.4-5.4-2.6-.6-5.1.7-6,3.3-.5,1.4-.7,3.2-.3,4.6.4,1.5,1.6,2.7,2.4,4-.4.2-.9.5-1.4.7h5.5c-.1-.1-.2-.3-.4-.4Z"/>
        <path d="M72.1,183.8c-.2-2.9-1.7-4.8-4.2-5.6-2.5-.7-5,.5-6.2,3-1.4,2.7-.8,5.4,1.9,8.5h5.5c2.3-1.4,3.2-3.2,3-5.9Z"/>
        <path d="M142.2,185.2c-.4-3.9-1.9-6-4.6-6.5-2.6-.5-4.8.7-6.1,3.3-1.2,2.4-.7,4.8,1.5,7.6h17.2v-5.8c-2.8-2.4-6.1-2.4-8,1.4Z"/>
        <path d="M19.9,181.4s0,0-.1,0c0,0,0,0,0,0,0,0,0,0,0,0,0,0,.1,0,.2,0Z"/>
        <path d="M118.5,189.7h.3c-.1,0-.2,0-.3,0Z"/>
        <path d="M144.8,174.4c0,3.2,2.4,6.1,5.3,6.1,0,0,.1,0,.2,0v-11.8c0,0-.1,0-.2,0-2.8,0-5.2,2.7-5.3,5.8Z"/>
        <path d="M80.4,168.1c-2.8-.1-5.4,2.6-5.5,5.8,0,3,2.2,5.8,5,6.1,2.8.2,5.5-2.4,5.7-5.6.2-3.1-2.2-6.1-5.1-6.2Z"/>
        <path d="M10.3,167.5c-2.9,0-5.4,2.7-5.4,5.9,0,3.1,2.4,5.8,5.2,5.8,2.9,0,5.4-2.7,5.4-5.9,0-3.1-2.4-5.8-5.2-5.8Z"/>
        <path d="M138.8,166.3c-2.7,0-5.2,2.5-5.3,5.6-.2,3.1,2.3,6,5.1,6.1,2.7,0,5.2-2.5,5.3-5.6.2-3.1-2.3-6-5.1-6.1Z"/>
        <path d="M68.8,165.8c-2.9,0-5.4,2.8-5.2,6,.1,3.1,2.6,5.7,5.3,5.6,2.8,0,5.1-2.8,5.1-5.9,0-3.1-2.4-5.7-5.2-5.7Z"/>
        <path d="M4,171c0-2.8-1.8-5.2-4.3-5.7v11.3c2.4-.5,4.2-2.8,4.3-5.6Z"/>
        <path d="M127.4,164.7c-2.9,0-5.2,2.5-5.2,5.6,0,3.2,2.2,5.7,5.1,5.8,2.9,0,5.2-2.5,5.2-5.6,0-3.2-2.2-5.7-5.1-5.8Z"/>
        <path d="M57.4,164.1c-2.8,0-5,2.4-5.1,5.5-.1,3.2,2.1,5.8,5,5.9,2.9,0,5.2-2.4,5.3-5.6,0-3.2-2.2-5.8-5.1-5.8Z"/>
        <path d="M116.1,162.4c-2.9,0-5.2,2.4-5.1,5.6,0,3.2,2.2,5.6,5.2,5.6,2.8,0,4.9-2.5,4.9-5.6,0-3.1-2.1-5.5-4.9-5.6Z"/>
        <path d="M46,161.8c-2.8,0-5,2.3-5.1,5.4,0,3.3,2.1,5.7,5.1,5.7,2.8,0,4.9-2.4,4.9-5.6,0-3.1-2.1-5.5-4.9-5.6Z"/>
        <path d="M104.7,160.1c-2.8,0-5,2.3-5,5.4,0,3.1,2.1,5.5,4.9,5.6,2.8,0,5-2.3,5-5.4,0-3.1-2.1-5.5-4.9-5.6Z"/>
        <path d="M34.6,159.5c-2.7,0-4.8,2.3-4.9,5.3,0,3.1,2,5.6,4.8,5.7,2.8,0,5-2.3,5-5.4,0-3.1-2.1-5.5-4.9-5.5Z"/>
        <path d="M93.5,158.3c-2.8-.2-5.1,2.2-5.2,5.2-.1,3.1,2,5.6,4.8,5.7,2.7,0,4.9-2.1,5-5.1.2-3.1-1.9-5.7-4.6-5.8Z"/>
        <path d="M23.3,157.1c-2.6,0-4.8,2.2-5,5.1-.1,3,2,5.6,4.8,5.7,2.6,0,4.8-2.2,5-5.1.1-3-2-5.6-4.8-5.7Z"/>
        <path d="M146.9,161.7c0,2.4,1.4,4.6,3.4,5.3v-10.2c-1.9.7-3.3,2.6-3.4,4.9Z"/>
        <path d="M81.9,156c-2.6,0-4.9,2.3-5,5.2,0,2.9,2,5.4,4.6,5.6,2.7.2,5.1-2.3,5.1-5.3,0-2.9-2.1-5.4-4.8-5.4Z"/>
        <path d="M11.8,155.4c-2.6,0-4.8,2.5-4.8,5.4,0,2.9,2.3,5.3,4.9,5.3,2.6,0,4.8-2.5,4.8-5.4,0-2.9-2.3-5.3-4.9-5.3Z"/>
        <path d="M140.9,154.8c-2.6,0-4.8,2.5-4.8,5.4,0,2.9,2.3,5.3,4.8,5.3,2.6,0,4.8-2.5,4.8-5.4,0-2.9-2.3-5.3-4.8-5.3Z"/>
        <path d="M70.6,153.6c-2.5-.1-4.9,2.3-5,5.1,0,2.8,2.1,5.4,4.7,5.5,2.6,0,4.8-2.4,4.9-5.3,0-2.7-2.1-5.2-4.6-5.3Z"/>
        <path d="M5.2,158.4c0-2.9-2.3-5.4-4.8-5.3-.2,0-.4,0-.6,0v10.4c.3,0,.5,0,.8,0,2.5,0,4.6-2.5,4.7-5.2Z"/>
        <path d="M129.5,152.5c-2.5,0-4.6,2.4-4.7,5.2,0,2.8,2.2,5.4,4.8,5.4,2.5,0,4.6-2.4,4.7-5.2,0-2.8-2.2-5.4-4.8-5.4Z"/>
        <path d="M59.7,151.9c-2.6-.1-4.9,2.4-4.8,5.3,0,2.8,2.2,5.1,4.7,5.2,2.5,0,4.7-2.4,4.7-5.1,0-2.7-2-5.2-4.5-5.3Z"/>
        <path d="M118.2,150.3c-2.5,0-4.5,2-4.6,4.8-.1,2.9,1.8,5.2,4.4,5.4,2.6.1,4.7-2.1,4.8-4.9,0-2.9-1.9-5.2-4.5-5.2Z"/>
        <path d="M48.4,149.7c-2.6-.1-4.7,2-4.8,4.9,0,2.8,1.8,5,4.3,5.2,2.6.1,4.7-2,4.8-4.9,0-2.8-1.8-5-4.3-5.2Z"/>
        <path d="M107,148c-2.6-.1-4.7,2-4.7,4.9,0,2.8,1.9,4.9,4.4,5,2.5,0,4.5-2,4.5-4.8,0-2.8-1.7-5-4.2-5.1Z"/>
        <path d="M36.8,147.4c-2.5,0-4.5,2-4.5,4.8,0,2.8,1.8,5,4.4,5,2.5,0,4.5-2,4.5-4.8,0-2.8-1.8-5-4.4-5Z"/>
        <path d="M25.3,145.6c-2.5,0-4.4,2.2-4.3,5,0,2.7,1.9,4.7,4.3,4.7,2.5,0,4.5-2.1,4.5-4.8,0-2.8-1.9-4.9-4.4-4.9Z"/>
        <path d="M150.2,151.9v-5.1c-.4.7-.7,1.6-.7,2.6,0,.9.2,1.8.7,2.5Z"/>
        <path d="M84,143.9c-2.4,0-4.3,2-4.4,4.7,0,2.7,1.9,5,4.4,5,2.4,0,4.3-2.2,4.3-4.8,0-2.6-1.9-4.8-4.3-4.8Z"/>
        <path d="M13.9,143.3c-2.3,0-4.3,2.3-4.2,4.9,0,2.6,2.1,4.7,4.4,4.7,2.3,0,4.3-2.3,4.2-4.9,0-2.6-2.1-4.7-4.4-4.7Z"/>
        <path d="M142.6,142.7c-2.3,0-4.3,2.1-4.4,4.7,0,2.6,1.9,4.8,4.2,4.8,2.3,0,4.3-2.1,4.4-4.7,0-2.6-1.9-4.8-4.2-4.8Z"/>
        <path d="M95.3,146.2c-2.4,0-4.2,2.1-4.3,4.7,0,2.8,1.8,5,4.3,5,2.5,0,4.4-2.1,4.4-4.9,0-2.8-1.9-4.9-4.5-4.9Z"/>
        <path d="M72.4,151c2.3,0,4.3-2.1,4.4-4.7,0-2.5-2-4.8-4.3-4.8-2.3,0-4.3,2.3-4.2,4.8,0,2.4,2,4.6,4.1,4.6Z"/>
        <path d="M6.8,145.8c0-2.5-2-4.8-4.3-4.8-1.1,0-2.1.5-2.8,1.3v6.7c.8.8,1.8,1.4,2.9,1.4,2.2,0,4.1-2.2,4.2-4.6Z"/>
        <path d="M131,149.8c2.3.1,4.4-2.1,4.4-4.7,0-2.4-1.9-4.6-4.1-4.7-2.3-.1-4.4,2.1-4.4,4.7,0,2.4,1.9,4.6,4.1,4.7Z"/>
        <path d="M61.1,149.1c2.3,0,4.3-2.2,4.3-4.7,0-2.4-2-4.5-4.2-4.5-2.2,0-4.1,2.2-4.2,4.6,0,2.4,1.9,4.6,4.1,4.7Z"/>
        <path d="M119.8,147.2c2.2,0,4-1.9,4-4.4,0-2.6-1.8-4.6-4.1-4.6-2.2,0-4,1.9-4,4.4,0,2.6,1.8,4.6,4.1,4.6Z"/>
        <path d="M49.8,146.5c2.2,0,3.9-1.8,4-4.3,0-2.6-1.7-4.6-4-4.6-2.2,0-3.9,1.8-4,4.3,0,2.6,1.7,4.6,4,4.6Z"/>
        <path d="M38.2,144c2.3.1,4-1.7,4.1-4.2,0-2.5-1.6-4.4-3.8-4.4-2.3,0-3.9,1.8-3.9,4.3,0,2.4,1.6,4.2,3.7,4.3Z"/>
        <path d="M109,145.2c2.3,0,3.9-1.9,3.8-4.5,0-2.5-1.7-4.3-4-4.3-2.3,0-3.9,1.9-3.8,4.5,0,2.5,1.7,4.3,4,4.3Z"/>
        <path d="M97.5,142.7c2.1,0,3.8-1.8,3.8-4.1,0-2.5-1.6-4.4-3.9-4.4-2.1,0-3.8,1.8-3.8,4.1,0,2.5,1.6,4.4,3.9,4.4Z"/>
        <path d="M27.4,142.1c2.1,0,3.8-1.7,4-4,.1-2.3-1.5-4.3-3.5-4.5-2.1-.2-3.9,1.5-4.1,3.8-.2,2.4,1.5,4.5,3.7,4.6Z"/>
        <path d="M74.7,138.4c1.9,0,3.7-1.9,3.7-4,0-2.1-1.6-4.1-3.5-4.2-1.9,0-3.7,1.7-3.8,3.9-.1,2.2,1.7,4.3,3.7,4.3Z"/>
        <path d="M86.1,140.2c2,0,3.8-1.9,3.8-4.2,0-2.1-1.7-4-3.6-4.1-2-.1-3.9,1.8-3.9,4.1,0,2.3,1.7,4.3,3.7,4.3Z"/>
        <path d="M16,139.6c2,0,3.8-1.8,3.9-4.1,0-2.2-1.7-4.3-3.7-4.2-2.2.1-3.5,1.5-3.7,3.9-.2,2.2,1.6,4.3,3.6,4.4Z"/>
        <path d="M144.8,130.7c-2,0-3.8,2-3.8,4.2,0,2.1,1.7,4,3.7,4.1,2,0,3.8-2,3.8-4.2,0-2.1-1.7-4-3.7-4.1Z"/>
        <path d="M8.4,133.1c0-2.1-1.6-4-3.5-4.1-1.9,0-3.6,1.8-3.7,3.9,0,2.1,1.6,4,3.5,4.1,1.9,0,3.6-1.8,3.7-3.9Z"/>
        <path d="M133.1,136.4c1.9.1,3.7-1.7,3.8-3.8,0-2.2-1.6-4.2-3.5-4.1-2.1,0-3.4,1.4-3.6,3.7-.2,2.1,1.4,4.1,3.4,4.3Z"/>
        <path d="M63.4,135.8c2-.2,3.3-1.4,3.4-3.8.2-2.2-1.5-4.2-3.5-4.1-2.1,0-3.4,1.4-3.5,3.7-.2,2.2,1.5,4.1,3.6,4.1Z"/>
        <path d="M121.8,133.8c2.1-.1,3.4-1.3,3.5-3.6,0-2.4-1.1-3.8-3.2-3.9-2.1,0-3.4,1.2-3.5,3.6,0,2.4,1.1,3.6,3.2,3.9Z"/>
        <path d="M52,133.2c1.9-.2,3.3-1.3,3.3-3.8,0-2.2-1.1-3.6-3.1-3.7-2.1-.1-3.4,1.1-3.5,3.5,0,2.4,1.1,3.6,3.4,3.9Z"/>
        <path d="M40.3,130.6c2,.2,3.1-1.2,3.5-3.3,0-2.3-1.1-3.7-3.1-3.9-2-.1-3.3,1.1-3.4,3.3-.1,2.2,1,3.7,3,3.8Z"/>
        <path d="M28.9,128.7c2,.2,3.1-1.2,3.6-4.2-.8-.7-1.9-2.3-3.1-2.6-1.9-.5-3.3,1.1-3.4,3.2-.1,2.1,1,3.4,2.9,3.6Z"/>
        <path d="M147,119c-1.7-.4-3,.9-3.1,2.9-.1,2.1,1,3.7,2.9,3.4,1.2-.2,2.3-1.5,3.4-2.4v-1.4c-1.1-.9-2-2.3-3.2-2.6Z"/>
        <path d="M17.5,125.9c1.1.1,2.4-1.4,3.7-2.2,0-.5,0-.9,0-1.4-1.1-.9-2-2.4-3.2-2.7-1.8-.4-3.4,1.1-3.1,3.1.2,1.3,1.6,3.1,2.7,3.3Z"/>
        <path d="M135.4,122.9c1.9,0,3.1-1.2,2.8-3.2-.2-1.3-1.4-2.3-2.1-3.5-.4,0-.9,0-1.3,0-.7,1.2-1.8,2.3-2,3.6-.3,1.8.9,3,2.6,3Z"/>
        <path d="M100.5,114.9"/>
      </g>
      <g fill="#1a1a1a">
        <path d="M58.8,3.5l1.4,5.3,1.7-5.3h1.7l1.7,5.3,1.4-5.3h2.2l-2.5,8.2h-2.2l-1.6-4.8-1.6,4.8h-2.2l-2.5-8.2h2.2Z"/>
        <path d="M72.1,3.5v8.2h-2.1V3.5h2.1Z"/>
        <path fill="#1a1a1a" d="M76.9,11.7h-3.9c.4-.2.9-.6.9-.9v-5.9c0-.2-.5-.7-.9-.7h0c0-.1,3.9-.1,3.9-.1h0c-.4.2-.9.5-.9.8v6c0,.3.2.6.5.6h.4c.4,0,.6-.1.5-.3,0,0,0,0,0,0-.3-.5-.1-1.1.4-1.4.5-.3,1.1-.1,1.4.4.1.2.2.5.1.7h0c0,0,0,.1,0,.2-.3.8-1.1.8-2.3.8Z"/>
        <path fill="#1a1a1a" d="M83.1,11.7h-3.9c.4-.2.9-.6.9-.9v-5.9c0-.2-.5-.7-.9-.7h0c0-.1,3.9-.1,3.9-.1h0c-.4.2-.9.5-.9.8v6c0,.3.2.6.5.6h.4c.4,0,.6-.1.5-.3,0,0,0,0,0,0-.3-.5-.1-1.1.4-1.4.5-.3,1.1-.1,1.4.4.1.2.2.5.1.7h0c0,0,0,.1,0,.2-.3.8-1.1.8-2.3.8Z"/>
      </g>
      <g fill="#1a1a1a">
        <path d="M64.2,25.2h-3.2s0,0,0,0c0,0,0,0,0,0h-.4s-.2-.2-.2-.2c0,0,.1,0,.2-.2-3.1-3.3-.3-6.6-2.9-10,0,.1,0,.3,0,.4,0,2-1,6.2-.7,8.6,0,.4.6,1.1,1,1.1,0,0,0,.2,0,.2h-1.9s0-.2,0-.2c.4,0,.7-.8.6-1.2-.3-2.3.7-6.8.6-9,0-.4-.7-1.1-1.2-1.2,0,0,0-.2,0-.2h2.6s0,0,0,0h.9c2.2,2.3,2.1,4.5,1.6,6.8,1.3-2.1,2.8-4.2,2.5-5.6,0-.4-.9-1-1.5-1,0,0,0-.2,0-.2h4.6s.1.2.1.2c-.4,0-.6.7-.6,1.1,0,.2,0,.4,0,.7.1,2-5.6,6.2-4,8.5.1.4,1.3,1.1,1.8,1.2,0,0,.3.2.3.2Z"/>
        <path d="M66.9,25c-3.1-.7-5.1-3-2.2-5.7,3.8-3.3,4.6-5.9,6.3-5.9,2.9,0,6.3,2.7,1.4,5.9-3.9,2.7-3.5,5.2-3.6,5.7-.5.4-1.9,0-1.9,0ZM66.9,19.3c-4,3.1-.7,5.6.7,5.6.5,0-1.8-2.5,2.6-5.6,4.4-3.1,2.6-5.6,1.1-5.6-.5,0-.6,2.5-4.5,5.6Z"/>
        <path d="M73.6,25.2s-.3-.2-.4-.2c.3,0-.2-.8-.4-1.2-2.5-2.4,6.5-6.9,5.5-9.1,0-.4-.5-.9-.9-1-.2,0-.3.2-.1.4,0,0,0,.1.1.2.6.8,0,1.8-.9,2.2-.9.4-1.2.2-1.1-.6,0-.3.1-.7.1-1.1,0-.1,0-.2,0-.3-.1-1,0-1.2.9-1.2,0,0,0,0,0,0h.3s3.6,0,3.6,0c0,0,.2.2.2.2-.3,0-.3.7-.3,1.1,0,.2,0,.4,0,.7.2,2-7.4,6.2-5.3,8.5.2.4,1.7,1.1,2.3,1.2,0,0,.3.2.3.2h-4Z"/>
        <path d="M85.7,15.7c-.1-.3-.3-.5-.5-.7-.2-.1-.4-.2-.6-.2-.2,0-.4.1-.6.3-.2.2-.3.5-.4.8,0,.2-.2.4-.2.6,0,.1,0,.3,0,.4,0,.1.1.2.2.3.1,0,.2.2.3.3.4.4.6.8.5,1.5,0,.6-.4,1.4-.7,2.4-.2.7-.4,1.3-.6,1.8-.1.5-.2,1-.2,1.4,0,.4-.1.7-.2.9-.1.2-.4.3-.9.3-1,0-3.1-.5-5-1.4-.4-.9,0-1.8.8-2.7.1.4.4.8.8,1,.3.2.7.3,1.1.3.4,0,.7-.1,1-.4.2-.2.4-.5.5-.9,0-.2.1-.4.2-.5,0-.1,0-.3,0-.4,0-.1-.1-.2-.2-.3-.1-.1-.2-.2-.4-.3-.2-.1-.4-.3-.5-.5-.1-.2-.2-.4-.1-.7,0-.3.2-.6.5-1,.3-.4.7-.9,1.1-1.6.4-.6.5-1.2.6-1.7,0-.5-.1-1-.3-1.3-.2-.4-.3-.7-.3-.9,0-.2.2-.3.7-.3.4,0,1,0,1.7.3.7.2,1.4.4,2,.8.4.9.3,1.7-.2,2.6Z"/>
        <path d="M90.5,15.3h-1.8c0,.7-.2,1.4-.4,2.1.7,0,1.4,0,2,0,0,.9,0,1.9,0,2.8h-2.8c-.2.7-.4,1.5-.4,2.2,1.1,0,2.3,0,3.4,0,0,.9,0,1.9,0,2.8h-5.1c-4-4.3,4.7-8.6.7-12.8h4.4c0,.9,0,1.9,0,2.8Z"/>
      </g>
      <g fill="#1a1a1a">
        <path d="M89.1,10.2c0,.8-.5,1.6-1.6,1.6s-1.6-.8-1.6-1.6.5-1.6,1.6-1.6,1.6.8,1.6,1.6ZM88.1,10.2c0-.6-.1-1.3-.7-1.3s-.7.7-.7,1.3.1,1.3.7,1.3.7-.7.7-1.3Z"/>
        <path d="M91.5,8.2c-.2,0-.4-.2-.4-.4s0-.1,0-.2c0-.1,0-.3-.1-.3-.2,0-.5,0-.5.7v.6h.6v.2h-.6v2.5c0,.2.1.3.3.3h0c0,.1-1.5.1-1.5.1h0c.2-.1.3-.3.3-.4v-2.5h-.3v-.2h.3v-.3c0-.4.1-.8.4-1,.7-.5,1.7-.2,1.9.2.1.3,0,.6-.4.6Z"/>
      </g>
    </g>
  </g>
</svg>