<?xml version="1.0" encoding="UTF-8"?>
<svg xmlns="http://www.w3.org/2000/svg" version="1.1" viewBox="0 0 18 18">
  <defs>
    <linearGradient id="linear-gradient" x1="9" y1=".7" x2="9" y2="17.1" gradientUnits="userSpaceOnUse">
      <stop offset="0" stop-color="#2b2b2b"/>
      <stop offset="1" stop-color="#0d0c0c"/>
    </linearGradient>
    <linearGradient id="linear-gradient-2" x1="8.9" y1="1.7" x2="8.9" y2="16.2" gradientUnits="userSpaceOnUse">
      <stop offset="0" stop-color="#666565"/>
      <stop offset="1" stop-color="#0d0c0c"/>
    </linearGradient>
  </defs>
  <g>
    <rect fill="none" stroke="#000" stroke-miterlimit="10" x=".5" y=".5" width="17" height="17" rx="2" ry="2"/>
    <rect fill="url(#linear-gradient)" x=".8" y=".9" width="16.4" height="16.4" rx="2" ry="2"/>
    <rect fill="url(#linear-gradient-2)" opacity=".3" x="1.7" y="1.9" width="14.5" height="14.5" rx="2" ry="2"/>
    <path fill="#fff" d="M8.9,8.1l-2.4,3.2s-.6.7-1.3.3-.2-1.3-.2-1.3l2.9-3.7c.2-.2.6-.4.9-.4.4,0,.7.1.9.4l2.9,3.7s.5.9-.1,1.3-1.3-.3-1.3-.3l-2.4-3.1h0Z"/>
  </g>
</svg>
